<svg
                xmlns="http://www.w3.org/2000/svg"
                width="23"
                height="23"
                viewBox="0 0 23 23"
                fill="none"
                className="w-6 h-6"
              >
                <g clipPath="url(#clip0_328_616)">
                  <path
                    d="M19.1006 3.59936C16.9873 1.48604 14.1776 0.32222 11.1889 0.32222C8.20025 0.32222 5.39046 1.48604 3.27714 3.59936C1.16382 5.71268 0 8.52247 0 11.5111C0 14.4997 1.16382 17.3095 3.27714 19.4229C5.39046 21.5362 8.20025 22.7 11.1889 22.7C14.1776 22.7 16.9873 21.5362 19.1006 19.4229C21.214 17.3095 22.3778 14.4997 22.3778 11.5111C22.3778 8.52247 21.214 5.71268 19.1006 3.59936ZM11.1889 21.8085C5.51091 21.8085 0.891545 17.1891 0.891545 11.5111C0.891545 5.83313 5.51091 1.21376 11.1889 1.21376C16.8669 1.21376 21.4862 5.83313 21.4862 11.5111C21.4862 17.1891 16.8669 21.8085 11.1889 21.8085Z"
                    fill="black"
                  />
                  <path
                    d="M11.1889 2.16595C8.01812 2.16595 5.43848 4.7456 5.43848 7.91642C5.43848 8.77672 6.13838 9.47662 6.99868 9.47662C7.85898 9.47662 8.55888 8.77672 8.55888 7.91642C8.55888 6.46619 9.73871 5.28636 11.1889 5.28636C12.6391 5.28636 13.819 6.46619 13.819 7.91642C13.819 9.37895 12.6391 10.5688 11.1889 10.5688C10.3286 10.5688 9.62874 11.2687 9.62874 12.129V15.195C9.62874 16.0553 10.3286 16.7552 11.1889 16.7552C12.0492 16.7552 12.7491 16.0553 12.7491 15.1951V13.4727C13.8758 13.1526 14.8924 12.4848 15.6409 11.5664C16.4783 10.5391 16.9394 9.24286 16.9394 7.91642C16.9394 4.7456 14.3598 2.16595 11.1889 2.16595ZM12.2094 12.6889C12.0042 12.7332 11.8576 12.9147 11.8576 13.1247V15.195C11.8576 15.5637 11.5576 15.8637 11.1889 15.8637C10.8202 15.8637 10.5203 15.5637 10.5203 15.195V12.1289C10.5203 11.7602 10.8202 11.4603 11.1889 11.4603C13.1308 11.4603 14.7105 9.87046 14.7105 7.91637C14.7105 5.97454 13.1308 4.39477 11.1889 4.39477C9.24711 4.39477 7.66734 5.97459 7.66734 7.91637C7.66734 8.28507 7.36738 8.58503 6.99868 8.58503C6.62998 8.58503 6.33002 8.28507 6.33002 7.91637C6.33002 5.23715 8.50972 3.05745 11.1889 3.05745C13.8682 3.05745 16.0479 5.23715 16.0479 7.91637C16.0479 10.2024 14.4336 12.2095 12.2094 12.6889Z"
                    fill="black"
                  />
                  <path
                    d="M11.1891 17.5576C10.3288 17.5576 9.62891 18.2575 9.62891 19.1178V19.2961C9.62891 20.1564 10.3288 20.8563 11.1891 20.8563C12.0494 20.8563 12.7493 20.1564 12.7493 19.2961V19.1178C12.7493 18.2575 12.0494 17.5576 11.1891 17.5576ZM11.8578 19.2961C11.8578 19.6648 11.5578 19.9648 11.1891 19.9648C10.8204 19.9648 10.5205 19.6648 10.5205 19.2961V19.1178C10.5205 18.7491 10.8204 18.4491 11.1891 18.4491C11.5578 18.4491 11.8578 18.7491 11.8578 19.1178V19.2961Z"
                    fill="black"
                  />
                  <path
                    d="M2.63383 13.293C2.51325 12.7107 2.45209 12.1112 2.45209 11.5111C2.45209 11.2649 2.25252 11.0653 2.00632 11.0653C1.76012 11.0653 1.56055 11.2649 1.56055 11.5111C1.56055 12.1718 1.62795 12.8322 1.76079 13.4738C1.80443 13.6843 1.98991 13.8292 2.19684 13.8292C2.2268 13.8292 2.25724 13.8262 2.28774 13.8199C2.52881 13.7699 2.68376 13.534 2.63383 13.293Z"
                    fill="black"
                  />
                  <path
                    d="M7.71122 19.5287C5.74986 18.6767 4.17147 17.1397 3.26682 15.2008C3.16273 14.9777 2.89741 14.8812 2.67439 14.9853C2.45128 15.0894 2.35482 15.3546 2.4589 15.5777C3.45565 17.7141 5.19483 19.4076 7.35598 20.3464C7.4138 20.3716 7.47407 20.3835 7.53335 20.3835C7.70551 20.3835 7.86947 20.2832 7.94248 20.1152C8.04055 19.8893 7.937 19.6268 7.71122 19.5287Z"
                    fill="black"
                  />
                </g>
                <defs>
                  <clipPath id="clip0_328_616">
                    <rect
                      width="22.3778"
                      height="22.3778"
                      fill="white"
                      transform="translate(0 0.32222)"
                    />
                  </clipPath>
                </defs>
              </svg>