<svg
                xmlns="http://www.w3.org/2000/svg"
                width="30"
                height="30"
                viewBox="0 0 30 30"
                className="w-6 h-6"
                fill="none"
              >
                <path
                  d="M14.7225 18.425C16.7553 18.425 18.4031 16.7771 18.4031 14.7444C18.4031 12.7117 16.7553 11.0639 14.7225 11.0639C12.6898 11.0639 11.042 12.7117 11.042 14.7444C11.042 16.7771 12.6898 18.425 14.7225 18.425Z"
                  stroke="#1C274C"
                  strokeWidth="1.84028"
                />
                <path
                  d="M4.49186 13.0749C5.0716 13.4392 5.44463 14.0597 5.44463 14.7443C5.44462 15.429 5.07159 16.0496 4.49186 16.4138C4.09735 16.6616 3.84317 16.8598 3.66233 17.0955C3.26617 17.6118 3.09133 18.2643 3.17628 18.9095C3.23998 19.3933 3.5258 19.8884 4.09743 20.8786C4.66909 21.8686 4.95491 22.3637 5.34211 22.6608C5.8584 23.057 6.51091 23.2318 7.15611 23.1469C7.45059 23.1081 7.74922 22.987 8.16105 22.7694C8.76648 22.4494 9.49049 22.4367 10.0835 22.7791C10.6765 23.1215 11.0274 23.7548 11.0529 24.439C11.0704 24.9046 11.1148 25.2238 11.2285 25.4983C11.4776 26.0994 11.9552 26.5772 12.5564 26.8262C13.0074 27.013 13.579 27.013 14.7223 27.013C15.8656 27.013 16.4372 27.013 16.8882 26.8262C17.4893 26.5772 17.9671 26.0994 18.2161 25.4983C18.3297 25.2238 18.3743 24.9046 18.3917 24.4391C18.4172 23.7548 18.7681 23.1215 19.3612 22.7791C19.9541 22.4368 20.6781 22.4496 21.2834 22.7695C21.6954 22.9872 21.994 23.1083 22.2884 23.147C22.9336 23.232 23.5862 23.0571 24.1024 22.6609C24.4896 22.3639 24.7755 21.8688 25.3472 20.8787C25.6017 20.4379 25.7995 20.0952 25.9463 19.8079M24.9527 16.4139C24.373 16.0497 24 15.4291 23.9999 14.7446C23.9999 14.0599 24.373 13.4392 24.9527 13.0749C25.3472 12.8271 25.6013 12.629 25.7821 12.3933C26.1783 11.877 26.3531 11.2245 26.2682 10.5793C26.2045 10.0954 25.9187 9.60035 25.347 8.61024C24.7754 7.62012 24.4895 7.12508 24.1023 6.82796C23.5861 6.43179 22.9335 6.25696 22.2883 6.34189C21.9939 6.38067 21.6952 6.50171 21.2834 6.71939C20.6779 7.03937 19.954 7.05213 19.361 6.70974C18.7681 6.36737 18.4172 5.73407 18.3917 5.04989C18.3743 4.58429 18.3297 4.2651 18.2161 3.99063C17.9671 3.38941 17.4893 2.91174 16.8882 2.6627C16.4372 2.47592 15.8656 2.47592 14.7223 2.47592C13.579 2.47592 13.0074 2.47592 12.5564 2.6627C11.9552 2.91174 11.4776 3.38941 11.2285 3.99063C11.1148 4.26508 11.0704 4.58424 11.0529 5.04978C11.0273 5.73402 10.6765 6.36739 10.0835 6.70974C9.49048 7.0521 8.76653 7.03931 8.16116 6.71936C7.74928 6.50166 7.45063 6.38061 7.15612 6.34183C6.51092 6.2569 5.85841 6.43173 5.34212 6.8279C4.95492 7.12502 4.6691 7.62007 4.09745 8.61018C3.84296 9.05098 3.64512 9.39364 3.4983 9.68089"
                  stroke="#1C274C"
                  strokeWidth="1.84028"
                  strokeLinecap="round"
                />
              </svg>