<svg xmlns="http://www.w3.org/2000/svg" width="24" height="24" viewBox="0 0 24 24" fill="none">
  <g clipPath="url(#clip0_328_601)">
    <path
      fillRule="evenodd"
      clipRule="evenodd"
      d="M9.04952 10.27C9.4797 10.4402 9.93697 10.5316 10.3995 10.54C10.7858 10.5651 11.1733 10.5651 11.5595 10.54C12.3595 10.48 12.9495 10.3 14.0395 10.25C14.2595 10.25 14.8995 10.32 15.3095 10.25C15.5259 10.233 15.7351 10.1644 15.9195 10.05C16.2712 9.78931 16.5277 9.42045 16.6495 8.99999C16.8303 8.24079 16.8877 7.45743 16.8195 6.67999C16.8195 6.10999 16.8995 5.03999 16.8195 4.16999C16.7983 3.7328 16.6894 3.30434 16.4995 2.90999C16.2446 2.47441 15.9465 2.06567 15.6095 1.68999C15.1354 1.1486 14.6278 0.637591 14.0895 0.159986C13.9688 0.0521112 13.8113 -0.00518244 13.6495 -1.41123e-05C13.3195 -1.41123e-05 12.5295 0.149986 12.3995 0.159986L9.48952 0.549986C9.41721 0.559098 9.34891 0.588286 9.29235 0.634241C9.23579 0.680196 9.19324 0.741079 9.16952 0.809986C9.14484 0.742368 9.09991 0.684003 9.04086 0.642844C8.9818 0.601686 8.9115 0.579736 8.83952 0.579986C8.79486 0.58128 8.7509 0.591362 8.71014 0.609655C8.66938 0.627948 8.63263 0.654094 8.60198 0.686599C8.57134 0.719103 8.5474 0.757329 8.53153 0.799091C8.51566 0.840852 8.50818 0.885332 8.50952 0.929986L8.40952 6.86999C8.40952 7.30999 8.26952 8.03999 8.25952 8.65999C8.24281 8.98127 8.28344 9.30295 8.37952 9.60999C8.43998 9.76005 8.53066 9.89608 8.64592 10.0096C8.76118 10.1232 8.89856 10.2118 9.04952 10.27ZM14.8095 2.36999C15.0857 2.70096 15.3269 3.05952 15.5295 3.43999C15.6041 3.62147 15.6481 3.81409 15.6595 4.00999L15.5995 3.99999C15.0344 3.89057 14.4635 3.81378 13.8895 3.76999C13.6791 3.73988 13.4759 3.67213 13.2895 3.56999C13.2895 3.39999 13.3695 3.12999 13.3695 2.93999V1.98999L13.3095 1.12999C13.4495 1.12999 13.5695 1.12999 13.6195 1.02999C14.0403 1.45466 14.4375 1.90199 14.8095 2.36999ZM9.57952 1.36999L12.4495 1.10999L12.2995 1.95999C12.2995 2.03999 12.1895 2.37999 12.1195 2.76999C12.0816 3.06517 12.0616 3.36238 12.0595 3.65999C12.0476 3.83521 12.0756 4.01087 12.1414 4.1737C12.2072 4.33653 12.3091 4.48229 12.4395 4.59999C12.7623 4.77963 13.1209 4.8855 13.4895 4.90999C14.1495 4.90999 14.8395 4.74999 15.4895 4.78999C15.5514 4.80922 15.6176 4.80922 15.6795 4.78999C15.6795 5.54999 15.5695 6.34999 15.5695 6.78999C15.6079 7.2592 15.6079 7.73077 15.5695 8.19999C15.3695 9.76999 14.6595 8.98999 14.0195 9.01999C12.9095 9.08999 12.3095 9.26999 11.4895 9.34999C11.1565 9.37185 10.8225 9.37185 10.4895 9.34999C10.2315 9.35525 9.9736 9.33515 9.71952 9.28999C9.62952 9.28999 9.52952 9.14999 9.47952 9.19999C9.41453 8.95898 9.38754 8.70931 9.39952 8.45999C9.39952 7.88999 9.46952 7.27999 9.44952 6.89999L9.19952 1.11999C9.2353 1.18775 9.29074 1.24312 9.35856 1.27881C9.42637 1.3145 9.5034 1.32885 9.57952 1.31999V1.36999Z"
      fill="black"
    />
    <path
      fillRule="evenodd"
      clipRule="evenodd"
      d="M21.7998 19.15C21.6636 19.0054 21.5049 18.8838 21.3298 18.79C21.1906 18.7314 21.0468 18.6846 20.8998 18.65C21.2503 18.3274 21.5001 17.9103 21.619 17.449C21.7378 16.9877 21.7208 16.5018 21.5698 16.05C21.3956 15.4905 21.0576 14.996 20.5994 14.6306C20.1413 14.2652 19.5841 14.0455 18.9998 14C18.4678 13.9612 17.9402 14.1216 17.5198 14.45C16.9761 14.9063 16.62 15.5473 16.5198 16.25C16.4275 16.6462 16.4478 17.0604 16.5786 17.4456C16.7094 17.8309 16.9453 18.1719 17.2598 18.43C17.0004 18.4912 16.7488 18.5818 16.5098 18.7C16.3465 18.7941 16.1982 18.912 16.0698 19.05C15.9421 19.1934 15.8313 19.3511 15.7398 19.52C15.5361 19.905 15.4104 20.3263 15.3698 20.76C15.1905 20.5394 14.9819 20.3443 14.7498 20.18C14.508 20.0316 14.2537 19.9044 13.9898 19.8C14.3171 19.4295 14.5397 18.9785 14.6346 18.4933C14.7295 18.0082 14.6933 17.5065 14.5298 17.04C14.2714 16.289 13.7328 15.6669 13.0266 15.3035C12.3204 14.9402 11.5011 14.8637 10.7398 15.09C10.2555 15.2412 9.81735 15.5127 9.46648 15.8793C9.11561 16.2458 8.86345 16.6954 8.73358 17.1859C8.60371 17.6764 8.60038 18.1919 8.72389 18.684C8.8474 19.1762 9.09373 19.6289 9.43983 20C9.29983 20.06 9.14983 20.11 9.01983 20.18C8.77781 20.3317 8.55313 20.5094 8.34983 20.71C8.34983 20.77 8.26983 20.84 8.21983 20.89C8.17073 20.4446 8.03484 20.0131 7.81983 19.62C7.7199 19.4462 7.59527 19.2879 7.44983 19.15C7.3166 19.0132 7.16518 18.8955 6.99983 18.8C6.8528 18.7443 6.70253 18.6975 6.54983 18.66C6.90224 18.3365 7.15315 17.9177 7.27209 17.4544C7.39103 16.9911 7.37287 16.5032 7.21983 16.05C7.04 15.5057 6.70446 15.0261 6.25476 14.6706C5.80505 14.3151 5.26095 14.0993 4.68983 14.05C4.16079 14.0108 3.63627 14.1714 3.21983 14.5C2.67306 14.9538 2.31625 15.596 2.21983 16.3C2.12506 16.6962 2.14426 17.1111 2.27519 17.4968C2.40613 17.8825 2.64347 18.2234 2.95983 18.48C2.69679 18.5445 2.44186 18.6384 2.19983 18.76C2.0384 18.8607 1.89054 18.9817 1.75983 19.12C1.63207 19.2634 1.52133 19.4211 1.42983 19.59C1.20997 19.9655 1.06401 20.3796 0.999829 20.81C0.984356 20.8579 0.978562 20.9084 0.982783 20.9586C0.987004 21.0088 1.00116 21.0576 1.02442 21.1023C1.04768 21.147 1.07959 21.1865 1.11828 21.2188C1.15698 21.251 1.20169 21.2752 1.24983 21.29C1.34667 21.322 1.45219 21.3148 1.54378 21.2699C1.63538 21.2251 1.70576 21.1461 1.73983 21.05C1.83233 20.8786 1.94296 20.7177 2.06983 20.57C2.19568 20.4325 2.32923 20.3023 2.46983 20.18L2.83983 19.79C3.08337 19.4733 3.35082 19.1758 3.63983 18.9C3.7039 18.8648 3.75348 18.8082 3.77983 18.74H3.94983C4.04101 18.7427 4.12965 18.7098 4.1969 18.6482C4.26414 18.5865 4.30466 18.5011 4.30983 18.41C4.30507 18.3293 4.27088 18.2532 4.21375 18.1961C4.15661 18.1389 4.08049 18.1048 3.99983 18.1C3.13983 17.99 2.99983 17.2 3.18983 16.5C3.37983 15.8 3.85983 15.23 4.56983 15.32C4.90131 15.3419 5.21936 15.4593 5.48554 15.6581C5.75173 15.8568 5.95467 16.1284 6.06983 16.44C6.21281 16.7486 6.24514 17.0971 6.16136 17.4267C6.07758 17.7564 5.88281 18.0471 5.60983 18.25C5.48344 18.3483 5.33643 18.4167 5.17983 18.45C4.98532 18.4907 4.78815 18.5174 4.58983 18.53C4.48815 18.5352 4.39252 18.5799 4.32339 18.6547C4.25425 18.7294 4.21709 18.8282 4.21983 18.93C4.22109 18.9808 4.23253 19.0308 4.25346 19.0771C4.27439 19.1234 4.30438 19.165 4.34167 19.1995C4.37897 19.234 4.4228 19.2606 4.47057 19.2779C4.51835 19.2952 4.5691 19.3027 4.61983 19.3C4.90786 19.3145 5.1966 19.2944 5.47983 19.24H5.61983C5.87983 19.47 6.08983 19.72 6.30983 19.94L6.70983 20.34C6.85685 20.4622 6.99706 20.5924 7.12983 20.73C7.26097 20.8802 7.37501 21.0446 7.46983 21.22C7.49484 21.2929 7.54202 21.3563 7.60477 21.4011C7.66752 21.4459 7.74271 21.47 7.81983 21.47C7.50297 22.0226 7.29267 22.6298 7.19983 23.26C7.1764 23.3108 7.16417 23.366 7.16397 23.4219C7.16376 23.4778 7.17558 23.5331 7.19862 23.5841C7.22167 23.635 7.25541 23.6804 7.29754 23.7172C7.33967 23.754 7.38922 23.7813 7.44282 23.7972C7.49643 23.8131 7.55283 23.8174 7.60821 23.8096C7.66358 23.8018 7.71664 23.7822 7.76378 23.7521C7.81092 23.722 7.85103 23.6822 7.88141 23.6352C7.91179 23.5883 7.93171 23.5353 7.93983 23.48C8.25377 22.8028 8.70299 22.1971 9.25983 21.7L9.72983 21.26C9.97165 21.0386 10.229 20.8347 10.4998 20.65C10.5331 20.6518 10.5665 20.6518 10.5998 20.65C11.1126 20.7403 11.6371 20.7403 12.1498 20.65C12.1792 20.6586 12.2104 20.6586 12.2398 20.65C12.2898 20.7214 12.3623 20.7739 12.4457 20.7993C12.5291 20.8247 12.6185 20.8214 12.6998 20.79C12.8464 20.722 12.9869 20.6417 13.1198 20.55C13.4172 20.7729 13.701 21.0134 13.9698 21.27C14.1298 21.43 14.2698 21.59 14.3998 21.74C14.8989 22.3264 15.2763 23.0063 15.5098 23.74C15.5247 23.7894 15.5492 23.8354 15.5819 23.8753C15.6146 23.9151 15.655 23.9481 15.7005 23.9723C15.7461 23.9965 15.796 24.0114 15.8474 24.0161C15.8988 24.0209 15.9506 24.0154 15.9998 24C16.0972 23.974 16.1812 23.9121 16.235 23.8269C16.2888 23.7416 16.3084 23.6391 16.2898 23.54C16.2442 22.8881 16.1096 22.2455 15.8898 21.63C15.8296 21.5046 15.7593 21.3842 15.6798 21.27C15.7698 21.2902 15.8641 21.277 15.945 21.2328C16.026 21.1887 16.0881 21.1166 16.1198 21.03C16.2182 20.8599 16.332 20.6993 16.4598 20.55C16.5698 20.41 16.7198 20.31 16.8498 20.17C16.9798 20.03 17.0998 19.93 17.2198 19.79C17.4637 19.4767 17.7311 19.1825 18.0198 18.91C18.0888 18.8784 18.1427 18.8209 18.1698 18.75H18.3398C18.43 18.75 18.5165 18.7142 18.5802 18.6504C18.644 18.5866 18.6798 18.5002 18.6798 18.41C18.6798 18.3198 18.644 18.2333 18.5802 18.1696C18.5165 18.1058 18.43 18.07 18.3398 18.07C17.4898 17.96 17.3398 17.17 17.5298 16.47C17.7198 15.77 18.2098 15.2 18.9198 15.29C19.2499 15.3125 19.5664 15.4303 19.8309 15.6291C20.0953 15.8279 20.2964 16.0992 20.4098 16.41C20.566 16.7165 20.6105 17.0679 20.5357 17.4037C20.4608 17.7395 20.2714 18.0388 19.9998 18.25C19.8687 18.3466 19.7188 18.4147 19.5598 18.45C19.3687 18.4908 19.1749 18.5175 18.9798 18.53C18.8781 18.5352 18.7825 18.5799 18.7134 18.6547C18.6443 18.7294 18.6071 18.8282 18.6098 18.93C18.6098 18.9803 18.6199 19.0301 18.6398 19.0764C18.6596 19.1226 18.6887 19.1643 18.7252 19.199C18.7617 19.2336 18.8049 19.2604 18.8521 19.2778C18.8993 19.2952 18.9496 19.3027 18.9998 19.3C19.2912 19.3145 19.5832 19.2944 19.8698 19.24H20.0098C20.2698 19.47 20.4798 19.71 20.6998 19.93C20.9198 20.15 20.9698 20.19 21.0998 20.32C21.2298 20.45 21.3898 20.56 21.5198 20.71C21.6467 20.86 21.7604 21.0206 21.8598 21.19C21.8736 21.239 21.897 21.2848 21.9288 21.3246C21.9605 21.3644 22 21.3974 22.0448 21.4217C22.0895 21.4459 22.1387 21.4609 22.1894 21.4658C22.2401 21.4706 22.2913 21.4653 22.3398 21.45C22.4374 21.4199 22.5192 21.3528 22.5678 21.2631C22.6164 21.1733 22.6279 21.0681 22.5998 20.97C22.5518 20.5122 22.4087 20.0694 22.1798 19.67C22.0811 19.4779 21.9528 19.3024 21.7998 19.15ZM10.2098 19.49C10.0093 19.2351 9.8774 18.9331 9.82664 18.6127C9.77588 18.2924 9.80796 17.9644 9.91983 17.66C9.98901 17.3666 10.1332 17.0963 10.3383 16.8754C10.5434 16.6545 10.8024 16.4907 11.0898 16.4C11.5549 16.2335 12.066 16.2517 12.5181 16.4507C12.9701 16.6498 13.3286 17.0146 13.5198 17.47C14.6498 20.17 10.8698 20.22 10.2098 19.49Z"
      fill="black"
    />
    <path
      fillRule="evenodd"
      clipRule="evenodd"
      d="M2.51024 13.13C2.66024 13.13 2.71024 13.27 3.39024 11.79C3.48024 11.6 3.55024 11.39 3.62024 11.2C4.08024 9.99998 4.23024 9.93998 4.00024 9.70998C3.55024 9.30998 2.59024 10.56 2.58024 10.59C2.47151 10.7279 2.38078 10.8791 2.31024 11.04C2.24196 11.2041 2.19167 11.3751 2.16024 11.55C2.10024 11.85 2.05024 13.09 2.51024 13.13Z"
      fill="black"
    />
    <path
      fillRule="evenodd"
      clipRule="evenodd"
      d="M22.8094 11C22.7427 10.8393 22.6553 10.688 22.5494 10.55C22.5494 10.55 21.5494 9.26999 21.1294 9.66999C20.8794 9.89999 21.0194 9.97999 21.4794 11.16C21.5594 11.35 21.6294 11.56 21.7094 11.75C22.3994 13.23 22.4394 13.1 22.5994 13.09C23.0594 13.09 22.9994 11.81 22.9594 11.51C22.9324 11.3341 22.8819 11.1626 22.8094 11Z"
      fill="black"
    />
    <path
      fillRule="evenodd"
      clipRule="evenodd"
      d="M6.00003 8.71998C6.09545 8.67637 6.18595 8.62274 6.27003 8.55998C6.35835 8.50793 6.4391 8.444 6.51003 8.36998C7.27003 7.69998 7.41003 7.64998 7.30003 7.36998C7.30003 7.25998 7.14003 6.88998 5.90003 7.31998C5.77696 7.36238 5.65944 7.41946 5.55003 7.48998C5.44468 7.55887 5.3474 7.63937 5.26003 7.72998C5.10003 7.90998 4.51003 8.72998 4.75003 8.96998C4.84003 9.04998 4.90003 9.21998 6.00003 8.71998Z"
      fill="black"
    />
    <path
      fillRule="evenodd"
      clipRule="evenodd"
      d="M18.5802 8.36997C18.6553 8.43934 18.7355 8.50286 18.8202 8.55997C18.9078 8.62284 19.0016 8.67646 19.1002 8.71997C20.2102 9.21997 20.2702 9.04997 20.3502 8.95997C20.5902 8.69997 19.9902 7.89997 19.8402 7.71997C19.7493 7.62927 19.6487 7.54879 19.5402 7.47997C19.4319 7.40751 19.3142 7.35031 19.1902 7.30997C17.9602 6.87997 17.8302 7.24997 17.7902 7.35997C17.6902 7.64997 17.8302 7.69997 18.5802 8.36997Z"
      fill="black"
    />
  </g>
  <defs>
    <clipPath id="clip0_328_601">
      <rect width="24" height="24" fill="white" />
    </clipPath>
  </defs>
</svg> 