<svg xmlns="http://www.w3.org/2000/svg" width="24" height="24" viewBox="0 0 24 24" fill="none">
  <g clipPath="url(#clip0_328_590)">
    <path
      fillRule="evenodd"
      clipRule="evenodd"
      d="M9.56007 11.51C8.79241 11.2802 7.9893 11.1921 7.19007 11.25C7.11093 11.2777 7.04438 11.333 7.00254 11.4057C6.9607 11.4784 6.94635 11.5636 6.9621 11.646C6.97784 11.7284 7.02264 11.8024 7.08835 11.8545C7.15405 11.9066 7.23628 11.9334 7.32007 11.93C7.99916 11.9238 8.67472 12.0285 9.32007 12.24C10.3622 12.6154 11.2576 13.3133 11.8762 14.2322C12.4948 15.151 12.8044 16.2432 12.7601 17.35C12.4601 20.47 9.59007 23 7.01007 22.83C5.78122 22.795 4.58098 22.4511 3.52007 21.83C2.44357 21.185 1.62643 20.1839 1.21007 19C0.290071 15.93 1.97007 12 5.70007 11.83C5.7715 11.817 5.8361 11.7794 5.88262 11.7236C5.92914 11.6679 5.95462 11.5976 5.95462 11.525C5.95462 11.4524 5.92914 11.3821 5.88262 11.3264C5.8361 11.2706 5.7715 11.233 5.70007 11.22C1.51007 11.31 -0.66993 15.62 0.270071 19.27C0.714686 20.7425 1.68669 21.9994 3.00007 22.8C4.2075 23.5385 5.58552 23.9519 7.00007 24C10.2701 24.19 13.5501 21.16 13.8001 17.44C13.8275 16.1265 13.4295 14.8393 12.6653 13.7705C11.9012 12.7018 10.8119 11.9088 9.56007 11.51Z"
      fill="black"
    />
    <path
      fillRule="evenodd"
      clipRule="evenodd"
      d="M22.8201 2.58999C22.1541 1.71717 21.2764 1.02878 20.2701 0.589992C19.8163 0.41462 19.3521 0.267669 18.8801 0.149992C18.0701 -8.37445e-06 14.9301 -0.180008 14.0001 0.519992C12.924 1.2334 12.0605 2.22412 11.5008 3.38756C10.9411 4.55099 10.7059 5.84398 10.8201 7.12999C11.5601 11.93 18.0001 14.74 21.5701 10.99C24.0001 8.30999 24.8901 5.63999 22.8201 2.58999ZM19.2901 1.13999C18.6223 1.66178 18.1331 2.37812 17.8901 3.18999C17.6188 3.04119 17.3145 2.96318 17.0051 2.96318C16.6957 2.96318 16.3913 3.04119 16.1201 3.18999C15.6028 2.50181 15.1916 1.74002 14.9001 0.929992C15.3261 0.806412 15.7666 0.739173 16.2101 0.729992C17.2547 0.621524 18.3102 0.762026 19.2901 1.13999ZM15.6701 5.24999C15.6794 5.005 15.7429 4.76511 15.8559 4.54756C15.969 4.33002 16.1288 4.14022 16.324 3.9918C16.5191 3.84338 16.7447 3.74002 16.9845 3.68917C17.2244 3.63831 17.4725 3.64121 17.7111 3.69765C17.9497 3.7541 18.1728 3.86269 18.3644 4.01563C18.556 4.16857 18.7114 4.36206 18.8193 4.58218C18.9273 4.80231 18.9851 5.04362 18.9887 5.28876C18.9923 5.5339 18.9415 5.7768 18.8401 5.99999C18.7125 6.24533 18.5355 6.46156 18.3201 6.63502C18.1048 6.80847 17.8558 6.93539 17.5889 7.00775C17.322 7.08011 17.0431 7.09634 16.7696 7.05541C16.4961 7.01449 16.2341 6.9173 16.0001 6.76999C15.6401 6.48999 15.6001 5.68999 15.6701 5.24999ZM14.3301 1.24999C14.5294 1.98739 14.8217 2.69643 15.2001 3.35999C15.2908 3.47226 15.3949 3.57301 15.5101 3.65999C15.1207 4.04491 14.844 4.52906 14.7101 5.05999C14.5901 5.46999 14.7101 5.32999 14.5301 5.33999C13.5884 5.24388 12.6379 5.39197 11.7701 5.76999C11.8674 4.8794 12.1444 4.01783 12.5845 3.23745C13.0245 2.45708 13.6184 1.77413 14.3301 1.22999V1.24999ZM14.5501 10.72C15.6101 9.77999 15.3801 9.64999 15.8701 8.71999C15.9284 8.65104 15.957 8.56172 15.9495 8.47171C15.942 8.38169 15.899 8.29834 15.8301 8.23999C15.7611 8.18164 15.6718 8.15308 15.5818 8.16058C15.4918 8.16808 15.4084 8.21103 15.3501 8.27999C14.6502 8.72417 14.1188 9.38936 13.8401 10.17C13.7564 10.1187 13.6763 10.0619 13.6001 9.99999C13.0661 9.47634 12.6173 8.87237 12.2701 8.20999C11.9844 7.701 11.8201 7.1329 11.7901 6.54999C12.7562 6.6266 13.7248 6.43634 14.5901 5.99999C14.5893 6.20153 14.6094 6.40261 14.6501 6.59999C15.0001 8.11999 16.8501 8.59999 18.2401 7.96999C18.0301 8.17999 18.1001 8.04999 18.5501 9.51999C18.7641 9.93433 19.0332 10.3178 19.3501 10.66L19.5901 11.04C18.7933 11.4278 17.909 11.6005 17.0248 11.5408C16.1407 11.4812 15.2875 11.1913 14.5501 10.7V10.72ZM22.9001 6.83999C22.4571 8.25594 21.6088 9.511 20.4601 10.45C20.4188 10.3653 20.3821 10.2786 20.3501 10.19C20.0501 9.211 19.4029 8.37529 18.5301 7.83999C18.8362 7.6747 19.1051 7.44828 19.3202 7.17477C19.5352 6.90126 19.6917 6.5865 19.7801 6.24999C20.7166 6.46635 21.7002 6.32738 22.5401 5.85999C22.6228 5.82592 22.6894 5.76146 22.726 5.67985C22.7627 5.59824 22.7667 5.50568 22.7373 5.42119C22.7079 5.3367 22.6472 5.26669 22.5677 5.22555C22.4883 5.18441 22.3961 5.17527 22.3101 5.19999C21.4201 5.35999 21.1601 4.95999 19.8501 5.32999C19.8377 4.93802 19.7291 4.55511 19.5338 4.21504C19.3384 3.87497 19.0624 3.58819 18.7301 3.37999C19.3749 2.86183 19.8545 2.16675 20.1101 1.37999C21.1153 1.8512 21.9351 2.64355 22.4402 3.63213C22.9454 4.62072 23.1072 5.74931 22.9001 6.83999Z"
      fill="black"
    />
    <path
      fillRule="evenodd"
      clipRule="evenodd"
      d="M2.25044 9.99998C2.28577 10.0189 2.32455 10.0306 2.36448 10.0343C2.4044 10.038 2.44467 10.0337 2.48289 10.0216C2.52111 10.0095 2.55652 9.98979 2.58701 9.96376C2.61751 9.93772 2.64248 9.90583 2.66044 9.86998C2.98044 9.25998 2.13044 8.06998 3.85044 6.07998C4.50385 5.28797 5.36663 4.69546 6.34044 4.36998C6.62088 4.31369 6.9049 4.27693 7.19044 4.25998C7.41044 4.25998 7.72044 4.47998 7.88044 4.47998C7.88044 4.47998 8.35044 4.02998 7.98044 3.79998C7.74082 3.64421 7.47205 3.53875 7.19044 3.48998C6.51337 3.41253 5.8276 3.49825 5.19044 3.73998C3.96686 4.21909 2.95806 5.12488 2.35044 6.28998C1.84044 7.38998 1.64044 9.73998 2.25044 9.99998Z"
      fill="black"
    />
    <path
      fillRule="evenodd"
      clipRule="evenodd"
      d="M8.60035 3.85998C8.06149 4.37943 7.55394 4.9304 7.08035 5.50998C6.92041 5.70411 6.81973 5.94017 6.79035 6.18998C6.79035 6.28281 6.82723 6.37183 6.89286 6.43747C6.9585 6.50311 7.04753 6.53998 7.14035 6.53998C7.22035 6.53998 9.14035 4.84998 9.25035 4.76998C9.44599 4.57722 9.61422 4.35851 9.75035 4.11998C10.0504 3.47998 9.50035 3.04998 8.88035 2.72998C8.79035 2.72998 6.68035 1.72998 6.59035 1.72998C6.50035 1.72998 6.36035 1.92998 6.36035 2.07998C6.37035 2.45998 8.51035 3.80998 8.60035 3.85998Z"
      fill="black"
    />
    <path
      fillRule="evenodd"
      clipRule="evenodd"
      d="M22.1702 13.24C22.1224 13.2115 22.0683 13.1952 22.0127 13.1925C21.9571 13.1898 21.9017 13.2007 21.8514 13.2244C21.801 13.2481 21.7573 13.2838 21.7239 13.3284C21.6906 13.3729 21.6687 13.425 21.6602 13.48C21.5502 13.85 21.7902 14.48 21.7802 14.84C21.7539 15.8088 21.5249 16.7613 21.1081 17.6363C20.6913 18.5112 20.0959 19.2891 19.3602 19.92C18.8802 20.25 17.2102 20.16 16.1602 20.05C16.9902 19.58 18.6902 19.1 17.9902 18.56C17.7802 18.39 17.2602 18.7 16.9902 18.8C16.3693 19.0047 15.7671 19.2623 15.1902 19.57C15.013 19.6651 14.8686 19.8114 14.7759 19.9897C14.6831 20.1681 14.6463 20.3703 14.6702 20.57C14.7757 20.889 14.9576 21.1774 15.2002 21.41C15.2902 21.5 17.4002 23.09 17.4802 23.11C17.5249 23.1202 17.5712 23.1212 17.6163 23.1131C17.6615 23.1049 17.7045 23.0877 17.7428 23.0625C17.7811 23.0372 17.8139 23.0045 17.8392 22.9663C17.8646 22.9281 17.8819 22.8851 17.8902 22.84C18.0402 22.33 17.2202 21.84 16.2602 20.9C16.9579 21.1302 17.6977 21.2039 18.4271 21.1158C19.1565 21.0276 19.8574 20.7798 20.4802 20.39C21.3878 19.6779 22.0603 18.7093 22.4102 17.61C22.8602 16.08 22.6202 13.55 22.1702 13.24Z"
      fill="black"
    />
    <path
      fillRule="evenodd"
      clipRule="evenodd"
      d="M6.51964 13.19C6.40248 13.261 6.30115 13.3553 6.22195 13.4671C6.14276 13.5789 6.08737 13.7058 6.05924 13.8399C6.03111 13.974 6.03084 14.1124 6.05843 14.2466C6.08602 14.3808 6.14089 14.5079 6.21964 14.62C4.93964 15.01 4.57964 15.97 4.85964 16.62C4.94372 16.794 5.0514 16.9555 5.17964 17.1C5.78964 17.93 6.83964 17.92 7.50964 18.32C8.01964 18.62 8.08964 18.39 7.50964 18.69C6.92964 18.99 5.83964 19.36 5.66964 18.75C5.64081 18.6613 5.58036 18.5863 5.49979 18.5392C5.41923 18.4922 5.32418 18.4765 5.23275 18.495C5.14133 18.5135 5.05992 18.5651 5.00402 18.6397C4.94812 18.7144 4.92165 18.8071 4.92964 18.9C5.01964 19.48 5.40964 19.9 6.26964 19.97C6.07964 20.34 6.46964 21.34 6.87964 21.32C7.28964 21.3 7.61964 20.32 7.30964 19.87C7.79105 19.7738 8.24522 19.5723 8.63964 19.28C8.82489 19.1139 8.94773 18.8894 8.98775 18.6438C9.02777 18.3982 8.98257 18.1463 8.85964 17.93C8.31964 16.93 6.50964 16.82 6.06964 16.34C5.83964 16.08 5.74964 15.96 6.06964 15.68C6.72964 15.13 7.38964 15.28 7.43964 15.41C7.46507 15.4934 7.52245 15.5633 7.59927 15.6046C7.67609 15.6458 7.7661 15.6549 7.84964 15.63C8.30964 15.49 8.11964 14.63 7.04964 14.52C7.14355 14.2722 7.14122 13.9982 7.04312 13.752C6.94501 13.5058 6.75825 13.3053 6.51964 13.19Z"
      fill="black"
    />
  </g>
  <defs>
    <clipPath id="clip0_328_590">
      <rect width="24" height="24" fill="white" />
    </clipPath>
  </defs>
</svg> 