<svg width="706" height="434" viewBox="0 0 706 434" fill="none" xmlns="http://www.w3.org/2000/svg">
<path d="M140.432 223.325L132.191 213.024L87.8987 241.523L73.1345 230.879L83.0918 249.763L113.65 236.029" stroke="black" stroke-width="2.06013"/>
<circle cx="92.7057" cy="237.746" r="31.932" stroke="black" stroke-width="2.06013"/>
<path d="M144.552 260.75L139.402 279.635L157.943 272.768M144.552 260.75L157.943 272.768M144.552 260.75L191.887 214.35C194.576 211.714 198.887 211.735 201.55 214.398L204.541 217.39C207.242 220.091 207.22 224.476 204.492 227.15L157.943 272.768" stroke="black" stroke-width="2.06013"/>
<path d="M178.201 237.746L157.943 258.004" stroke="black" stroke-width="2.06013"/>
<path d="M190.905 241.179V241.179C192.417 242.691 192.403 245.147 190.874 246.642L180.374 256.909C179.133 258.122 177.183 258.219 175.828 257.135L174.767 256.287" stroke="black" stroke-width="2.06013"/>
<path d="M190.905 240.836L177.858 227.445" stroke="black" stroke-width="2.06013"/>
<path d="M196.399 235.342L183.351 221.951" stroke="black" stroke-width="2.06013"/>
<path d="M147.642 276.201L142.149 271.051L140.089 279.292L147.642 276.201Z" fill="black"/>
<path d="M169.624 140.789C169.624 140.203 170.936 139.194 171.36 138.847C172.223 138.141 173.34 137.628 174.395 137.304C175.712 136.898 177.697 135.825 177.983 134.333C178.211 133.144 178.56 131.647 177.603 130.771C176.893 130.119 176.412 129.518 175.527 129.125C174.811 128.807 174.119 129.501 173.649 129.909C172.86 130.595 172.021 131.35 171.424 132.218C170.364 133.761 169.459 135.399 168.145 136.764C167.78 137.143 167.674 137.837 167.194 138.101C166.488 138.489 165.535 138.358 164.77 138.358C163.533 138.358 162.296 138.358 161.06 138.358C160.035 138.358 159.031 138.59 157.999 138.59C156.805 138.59 155.674 138.669 154.553 138.268C153.917 138.041 153.124 137.967 152.546 137.599C151.761 137.099 150.62 137.061 149.743 137.342C148.347 137.791 147.19 139.409 146.303 140.493C145.327 141.685 144.966 143.862 145.872 145.187C146.142 145.581 146.177 146.044 146.528 146.395C146.632 146.499 147.22 147.217 147.184 147.244C146.813 147.532 146.238 147.685 145.827 147.971C145.331 148.316 144.906 148.735 144.4 149.064C143.71 149.512 142.128 151.016 142.079 151.899C141.985 153.578 142.819 154.865 144.046 155.957C145.33 157.098 147.222 157.783 147.608 159.628C148.017 161.579 147.171 163.283 147.171 165.209C147.171 166.743 149.042 168.288 150.373 168.681C153.003 169.457 155.518 168.384 157.761 167.055C159.261 166.166 160.814 165.556 162.564 165.556C163.411 165.556 164.101 165.547 164.879 165.929C165.742 166.353 166.555 167.007 167.483 167.292C168.774 167.69 170.034 167.755 171.386 167.755C173.079 167.755 174.981 167.884 175.707 166.019C175.841 165.673 176.056 165.442 176.131 165.068C176.237 164.537 176.3 163.999 176.395 163.467C176.492 162.923 176.382 162.366 176.478 161.827C176.597 161.158 176.667 160.45 176.684 159.77C176.701 159.083 176.647 158.271 177.031 157.661C177.574 156.799 178.322 156.469 179.217 156.021C180.747 155.256 183.744 154.399 183.744 152.195C183.744 151.657 183.708 151.277 183.538 150.768C183.244 149.886 181.965 149.522 181.204 149.18C179.893 148.59 178.679 147.69 177.353 147.18C176.558 146.874 175.541 145.81 175.122 145.065C174.832 144.549 174.717 143.745 174.717 143.161C174.717 142.663 174.451 142.534 174.228 142.178C173.328 140.738 171.024 141.136 169.508 141.136" stroke="black" stroke-width="2.06013" stroke-linecap="round"/>
<path d="M161.175 146.344C160.39 146.431 159.466 147.822 158.931 148.357C158.611 148.677 158.142 149.101 157.774 149.347C157.525 149.513 157.467 149.881 157.292 150.106C156.891 150.62 156.733 151.492 156.25 151.906C155.821 152.274 155.967 153.075 155.967 153.578C155.967 155.924 159.22 154.905 160.545 155.031C161.944 155.164 163.732 158.638 165.168 156.87C166.133 155.682 166.5 154.712 166.705 153.198C166.832 152.265 166 151.946 165.11 151.899C164.747 151.88 163.119 151.895 162.937 151.552C162.67 151.047 165.104 150.491 165.458 150.305C166.739 149.631 166.284 147.674 165.11 147.18C164.532 146.937 163.739 146.973 163.117 146.781C162.49 146.588 161.718 146.691 161.06 146.691" stroke="black" stroke-width="2.06013" stroke-linecap="round"/>
<path d="M157.935 140.557C156.955 140.557 156.098 141.588 155.388 142.152C154.926 142.519 154.444 142.942 154.025 143.361C153.303 144.083 152.344 144.861 151.916 145.823C151.693 146.326 151.478 146.811 151.28 147.328C151.048 147.929 151.071 148.511 150.932 149.122C150.754 149.906 150.875 150.808 150.875 151.61C150.875 152.233 150.714 153.126 150.9 153.725C151.285 154.965 151.933 156.812 152.958 157.661C154.713 159.115 156.751 160.106 158.738 161.216C160.346 162.115 162.695 162.77 164.557 162.406C166.845 161.958 168.506 160.605 170.363 159.313C172.107 158.1 173.484 155.672 174.086 153.693C174.461 152.463 174.706 151.448 174.048 150.241C173.618 149.452 173.326 148.606 172.839 147.823C172.371 147.071 171.856 146.299 171.296 145.611C170.48 144.608 169.661 143.488 168.756 142.583C167.513 141.34 164.817 140.789 163.143 140.789C162.61 140.789 162.09 140.57 161.561 140.557C160.914 140.542 160.266 140.557 159.619 140.557C159.274 140.557 158.793 140.469 158.462 140.564C158.203 140.638 157.887 140.789 157.587 140.789" stroke="black" stroke-width="2.06013" stroke-linecap="round"/>
<path d="M194.682 164.611C197.887 157.63 198.802 139.478 189.189 129.589C177.171 117.228 170.647 117.915 161.033 117.228C153.149 116.665 141.805 121.692 135.625 129.589C129.445 137.486 125.324 163.581 138.372 173.538C151.419 183.496 158.63 183.152 167.214 181.436C175.798 179.719 185.411 171.822 193.995 178.689" stroke="black" stroke-width="2.06013"/>
<path d="M195.277 170.983C196.107 171.052 197.025 171.611 197.661 172.109C199.121 173.25 200.606 174.357 201.846 175.735" stroke="black" stroke-width="2.06013" stroke-linecap="round"/>
<path d="M232.108 100.404L256.829 147.444L268.503 150.19L311.422 123.409L289.791 125.125C284.755 110.705 274.203 81.7255 272.28 81.1761C270.357 80.6268 244.697 93.7658 232.108 100.404Z" stroke="black" stroke-width="2.06013"/>
<path d="M256.829 147.443L286.358 127.656M290.134 125.125L286.358 127.656M286.358 127.656L300.435 126.499L268.503 146.07" stroke="black" stroke-width="2.06013"/>
<path d="M243.782 106.584L254.426 101.434" stroke="black" stroke-width="2.06013"/>
<path d="M247.215 111.735L268.847 101.777" stroke="black" stroke-width="2.06013"/>
<path d="M250.649 117.228L272.28 107.271" stroke="black" stroke-width="2.06013"/>
<path d="M254.082 124.095L270.22 116.198" stroke="black" stroke-width="2.06013"/>
<path d="M257.516 129.589L273.653 121.692" stroke="black" stroke-width="2.06013"/>
<path d="M329.748 84.1844C329.748 82.2083 329.644 80.2436 329.644 78.2684C329.644 77.2759 329.626 76.231 329.852 75.2586C330.057 74.371 330.374 73.6451 330.74 72.8138C331.428 71.2485 332.6 69.6534 334.049 68.7256C335.987 67.4854 338.655 67.347 340.853 66.8517C342.467 66.488 344.213 66.6441 345.858 66.6441C346.813 66.6441 347.793 66.5074 348.66 66.9785C350.222 67.827 351.483 68.9707 352.731 70.219C354.486 71.9739 355.643 74.0486 356.473 76.3541C356.667 76.8927 356.76 77.4914 356.831 78.0551C356.864 78.3198 356.763 78.5642 356.963 78.7643C357.005 78.8056 357.151 78.8912 357.027 78.8912C356.584 78.8912 357.267 78.7167 357.379 78.6836C359.446 78.07 361.387 77.2121 363.525 76.8154C364.63 76.6103 365.762 76.6078 366.881 76.6078C367.696 76.6078 368.352 76.7829 369.136 76.9192C372.131 77.44 373.336 81.1836 373.005 83.7923C372.78 85.5601 371.992 86.8254 370.767 88.1053C370.166 88.7338 369.751 89.5202 369.141 90.1465C368.786 90.5115 368.389 90.7677 368 91.0863C367.551 91.4537 367.955 91.5655 368.311 91.8705C369.108 92.5534 369.799 93.418 370.433 94.2519C371.531 95.6957 373.398 97.3108 373.229 99.3318C373.087 101.045 371.33 102.197 370.024 103.068C368.516 104.073 366.697 104.148 365.047 103.466C363.843 102.968 362.885 102.319 361.795 101.644C361.298 101.335 360.686 100.984 360.262 100.583C360.071 100.402 359.843 100.393 359.662 100.249C359.479 100.102 358.531 101.855 358.347 102.134C357.597 103.275 356.947 104.472 356.208 105.617C355.576 106.597 355.159 107.723 354.496 108.678C352.994 110.84 350.914 112.762 348.614 114.052C347.322 114.777 345.98 115.191 344.497 115.298C343.308 115.384 341.787 115.527 340.646 115.113C339.611 114.739 338.798 113.716 338.12 112.899C336.806 111.315 336.489 109.715 336.177 107.762C335.822 105.545 335.352 103.298 335.352 101.05C335.352 100.562 335.561 100.19 335.122 100.162C333.783 100.078 332.298 99.6404 331.028 99.2568C328.752 98.5691 326.77 97.5379 325.1 95.8318C323.857 94.561 322.504 93.0074 322.119 91.2132C321.801 89.7257 321.179 87.4494 322.067 86.0526C322.822 84.867 323.522 84.4236 324.927 84.2074C326.021 84.0392 327.367 84.1158 328.45 84.2824C328.963 84.3613 329.469 84.7033 329.955 84.7033" stroke="black" stroke-width="2.06013" stroke-linecap="round"/>
<path d="M346.25 98.8185C346.25 96.4353 345.016 93.9306 343.811 91.9223C342.964 90.5107 341.904 89.1731 341.499 87.5517C341.295 86.7339 341.268 85.9235 341.268 85.0838C341.268 84.5432 341.283 83.5339 341.741 83.1407C341.973 82.9419 342.093 82.6336 342.306 82.4199C342.624 82.1025 343.152 81.8111 343.575 81.6703C344.24 81.4486 344.939 81.4858 345.633 81.4858C347.282 81.4858 348.559 82.5551 348.926 84.2074C349.16 85.2632 349.364 86.1969 349.364 87.298C349.364 88.4444 348.885 89.4694 348.586 90.5673C348.302 91.6076 347.647 92.463 347.231 93.4157C346.935 94.092 346.634 94.7817 346.435 95.4973C346.222 96.2618 346.021 96.9924 345.933 97.7806C345.875 98.3058 345.628 98.8182 345.628 99.3375" stroke="black" stroke-width="2.06013" stroke-linecap="round"/>
<path d="M416.735 120.148C416.735 116.994 416.999 113.708 416.726 110.566C416.468 107.603 415.651 104.619 415.569 101.651C415.536 100.487 415.569 99.3169 415.569 98.152C415.569 96.5407 415.94 95.5774 416.652 94.1527C417.711 92.035 420.12 90.5485 422.031 89.3203C423.036 88.6738 423.852 88.1069 425.067 87.9965C426.66 87.8517 428.248 88.0021 429.733 88.5797C431.917 89.429 433.634 91.1487 434.899 93.1159C435.97 94.7831 436.398 97.5497 436.398 99.4851C436.398 100.971 436.491 102.209 435.713 103.54C434.364 105.849 432.465 107.747 431.233 110.15C430.469 111.639 429.504 112.902 428.64 114.316C427.943 115.457 427.427 116.594 426.817 117.815C426.42 118.609 425.62 119.586 425.567 120.481C425.545 120.847 425.192 121.735 424.937 122.018M417.402 119.518C418.976 118.534 421.001 119.587 422.577 119.981C423.191 120.135 423.771 120.379 424.197 120.852C424.772 121.491 424.401 121.825 424.401 122.481" stroke="black" stroke-width="2.06013" stroke-linecap="round"/>
<path d="M420.439 118.671C420.439 117.66 420.564 116.816 420.778 115.855C420.881 115.39 420.961 114.945 421.129 114.481C421.215 114.245 421.364 113.693 421.5 113.523C422.007 112.89 422.131 111.812 422.273 111.032C422.496 109.806 422.624 108.361 422.624 107.123C422.624 105.982 422.857 104.594 422.598 103.495C422.375 102.546 421.859 101.589 421.385 100.736C421.232 100.46 420.816 100.366 420.554 100.25C419.996 100.002 420.959 100.047 421.187 100.225C422.058 100.902 423.123 101.343 424.055 101.936C425.542 102.883 427.835 103.495 429.58 103.495C430.165 103.495 428.993 103.84 428.832 103.955C428.367 104.288 427.964 104.685 427.568 105.105C426.722 106 426.063 107.433 425.639 108.579C425.44 109.117 425.083 109.605 424.86 110.138C424.522 110.943 424.267 111.769 423.953 112.578C423.545 113.627 423.282 114.758 422.911 115.797C422.376 117.297 422.469 119.076 421.589 120.396" stroke="black" stroke-width="2.06013" stroke-linecap="round"/>
<rect x="415.007" y="117.428" width="12.6418" height="10.6657" rx="1.37342" transform="rotate(11.7887 415.007 117.428)" fill="black"/>
<path d="M403.411 98.7154H407.117" stroke="black" stroke-width="2.06013" stroke-linecap="round"/>
<path d="M408.705 85.4802C409.447 86.222 410.151 87.0561 410.823 87.8625" stroke="black" stroke-width="2.06013" stroke-linecap="round"/>
<path d="M417.617 77.6273C417.901 77.684 418.086 78.2017 418.215 78.4214C418.658 79.173 418.888 80.0817 419.205 80.8919" stroke="black" stroke-width="2.06013" stroke-linecap="round"/>
<path d="M429.882 74.7155C429.882 75.5419 429.896 76.3697 429.877 77.1958C429.838 78.8863 429.441 80.5307 429.352 82.2154" stroke="black" stroke-width="2.06013" stroke-linecap="round"/>
<path d="M441.794 80.0096C441.77 80.2187 441.584 80.473 441.47 80.6371C441.048 81.2454 440.624 81.864 440.186 82.4606C439.316 83.644 438.46 84.85 437.558 86.0096" stroke="black" stroke-width="2.06013" stroke-linecap="round"/>
<path d="M443.911 90.7742C445.229 90.3349 446.644 89.8048 447.882 89.186" stroke="black" stroke-width="2.06013" stroke-linecap="round"/>
<path d="M446.382 98.98H451.587" stroke="black" stroke-width="2.06013" stroke-linecap="round"/>
<path d="M441.529 108.156C443.233 108.156 444.936 109.175 446.293 110.098" stroke="black" stroke-width="2.06013" stroke-linecap="round"/>
<path d="M486.877 125.125L508.165 120.318C509.081 125.698 508.165 137.143 500.267 141.263C491.392 145.893 474.859 140.92 472.112 130.276M486.877 125.125L492.371 101.091C490.54 100.976 485.394 101.049 479.666 104.867C473.486 108.988 469.366 119.632 472.112 130.276M486.877 125.125L472.112 130.276" stroke="black" stroke-width="2.06013"/>
<path d="M492.027 119.632L500.954 97.657L513.315 113.108L492.027 119.632Z" fill="black"/>
<path d="M408.754 133.495C408.754 135.052 408.875 136.665 408.376 138.161C407.548 140.646 405.767 142.775 403.999 144.663C402.31 146.467 400.328 148.019 398.37 149.518C397.198 150.415 395.959 151.418 394.637 152.079" stroke="black" stroke-width="2.06013" stroke-linecap="round"/>
<path d="M447.351 162.265C447.452 161.255 448.808 160.402 449.525 159.832C452.127 157.766 454.951 156.5 458.013 155.196C462.2 153.414 466.592 152.131 470.681 150.114C471.589 149.666 472.488 149.002 473.44 148.684" stroke="black" stroke-width="2.06013" stroke-linecap="round"/>
<path d="M502.58 158.774C490.524 164.309 467.792 176.836 473.303 182.668C478.814 188.5 515.779 187.138 532.886 187.273" stroke="black" stroke-width="2.06013"/>
<circle cx="559.324" cy="170.791" r="18.8845" fill="black"/>
<path fill-rule="evenodd" clip-rule="evenodd" d="M554.908 159.191C555.447 159.011 556.031 159.303 556.21 159.842C556.256 159.979 556.367 160.219 556.46 160.382C556.711 160.825 556.906 161.35 557.06 161.765L557.06 161.765C557.114 161.909 557.162 162.04 557.207 162.15C557.232 162.212 557.266 162.292 557.305 162.383L557.305 162.383C557.346 162.481 557.392 162.59 557.438 162.702C557.846 162.619 558.261 162.585 558.676 162.585C560.083 162.585 561.415 162.813 562.744 163.477C563.253 163.732 563.459 164.35 563.205 164.859C562.95 165.368 562.332 165.574 561.823 165.32C560.845 164.831 559.845 164.645 558.676 164.645C558.333 164.645 558.023 164.677 557.738 164.746C557.576 165.102 557.217 165.35 556.8 165.35C556.736 165.35 556.674 165.344 556.613 165.333C556.448 165.48 556.311 165.594 556.192 165.693L556.192 165.693C555.951 165.894 555.786 166.031 555.62 166.245C555.585 166.289 555.559 166.338 555.51 166.471C555.504 166.488 555.497 166.508 555.489 166.531L555.489 166.531C555.45 166.644 555.384 166.833 555.288 167.026C555.288 167.036 555.287 167.049 555.287 167.062C555.287 167.091 555.288 167.123 555.29 167.157C555.292 167.19 555.296 167.221 555.3 167.25L555.304 167.271C555.76 167.853 556.048 168.167 556.487 168.325C557.713 168.767 558.951 169.103 560.188 169.232C560.308 169.244 560.432 169.256 560.559 169.268L560.559 169.268C561.67 169.374 563.018 169.503 564.225 170.316C565.143 170.933 565.776 171.725 566.18 172.758C566.516 173.616 567.017 175.034 566.59 176.374C566.298 177.294 565.65 177.931 565.187 178.386L565.187 178.386C565.139 178.433 565.092 178.479 565.049 178.523C564.622 178.95 564.151 179.211 563.689 179.383C563.922 179.893 564.143 180.435 564.313 180.992C564.341 181.083 564.378 181.187 564.427 181.321L564.446 181.374C564.488 181.488 564.537 181.62 564.582 181.753C564.68 182.046 564.802 182.458 564.802 182.886C564.802 183.455 564.341 183.916 563.772 183.916C563.203 183.916 562.742 183.455 562.742 182.886C562.742 182.812 562.715 182.667 562.629 182.41C562.594 182.306 562.556 182.202 562.513 182.086L562.492 182.028C562.444 181.897 562.389 181.745 562.343 181.595C562.164 181.01 561.907 180.417 561.617 179.82C560.156 179.998 558.692 179.657 557.447 178.964C557.053 178.744 556.663 178.497 556.333 178.151C555.987 177.788 555.755 177.369 555.588 176.867C555.408 176.327 555.699 175.744 556.239 175.564C556.779 175.384 557.362 175.675 557.542 176.215C557.633 176.488 557.726 176.626 557.824 176.729C557.937 176.848 558.11 176.975 558.45 177.164C559.398 177.692 560.48 177.915 561.505 177.756C561.59 177.677 561.698 177.605 561.834 177.552C562.148 177.43 562.419 177.487 562.593 177.557C563.033 177.461 563.312 177.346 563.592 177.066L563.668 176.99C564.21 176.448 564.495 176.163 564.627 175.75C564.807 175.183 564.615 174.41 564.262 173.509C564.01 172.864 563.644 172.408 563.075 172.025C562.323 171.519 561.505 171.436 560.316 171.316H560.316C560.206 171.305 560.092 171.293 559.975 171.281C558.518 171.129 557.11 170.739 555.789 170.264C554.72 169.879 554.096 169.076 553.645 168.495L553.602 168.439C553.429 168.216 553.352 167.965 553.316 167.821C553.272 167.649 553.247 167.469 553.235 167.302C553.223 167.134 553.223 166.952 553.242 166.776C553.258 166.626 553.298 166.372 553.432 166.131C553.466 166.068 553.484 166.02 553.527 165.9L553.527 165.9L553.527 165.9C553.54 165.863 553.555 165.82 553.574 165.767C553.648 165.564 553.762 165.278 553.993 164.98C554.306 164.578 554.723 164.231 555.025 163.979L555.025 163.979C555.113 163.906 555.191 163.841 555.254 163.785C555.353 163.697 555.453 163.615 555.555 163.538C555.52 163.451 555.484 163.367 555.445 163.276L555.445 163.276C555.4 163.17 555.351 163.057 555.297 162.922C555.203 162.69 555.129 162.49 555.063 162.31L555.063 162.31C554.935 161.964 554.834 161.691 554.668 161.399C554.53 161.155 554.355 160.791 554.256 160.494C554.076 159.954 554.368 159.371 554.908 159.191Z" fill="white"/>
<path d="M483.722 216.427H501.614" stroke="black" stroke-width="2.06013" stroke-linecap="round"/>
<path d="M507.178 232.648C507.999 234.215 509.185 235.599 510.149 237.08C511.306 238.857 512.266 240.752 513.217 242.644C513.661 243.527 514.129 244.399 514.453 245.335C514.551 245.618 514.557 246.046 514.794 246.236C515.47 246.777 514.218 246.207 513.948 246.126C511.643 245.442 509.357 245.347 506.959 245.359C504.019 245.374 500.973 245.625 498.083 246.187C496.885 246.42 495.406 246.413 494.357 247.112" stroke="black" stroke-width="2.06013" stroke-linecap="round"/>
<path d="M540.6 243.387C536.473 243.387 532.424 244.352 528.327 244.75C525.715 245.004 523.079 245.108 520.486 245.53C519.161 245.745 517.861 246.102 516.553 246.339C516.283 246.389 516.045 246.5 515.78 246.559C515.671 246.583 515.338 246.535 515.445 246.565C516.576 246.873 517.702 247.133 518.806 247.539C520.814 248.277 522.643 249.055 524.382 250.315C526.106 251.563 527.628 253.147 528.851 254.893C529.629 256.004 530.141 257.235 530.604 258.484C530.836 259.112 530.957 259.8 530.957 260.481C530.957 260.787 531.127 261.662 531.395 261.796" stroke="black" stroke-width="2.06013" stroke-linecap="round"/>
<path d="M493.59 247.989C494.264 246.716 495.213 245.522 496.153 244.434C498.306 241.944 500.47 239.447 502.521 236.873C503.543 235.59 504.706 234.203 505.973 233.147C506.322 232.856 506.723 232.63 507.008 232.264C507.393 231.769 507.62 231.69 508.311 231.832C510.2 232.221 512.05 232.553 513.917 233.086C516.338 233.778 518.814 234.525 521.284 235.004C522.361 235.213 523.415 235.503 524.492 235.716C525.355 235.887 526.312 235.91 527.122 236.264C527.724 236.528 528.372 236.607 528.985 236.836C529.629 237.078 530.251 237.383 530.896 237.628C532.173 238.112 533.422 238.702 534.664 239.271C535.198 239.516 535.733 239.75 536.272 239.99C536.693 240.177 537.166 240.211 537.587 240.373C538.523 240.733 539.574 240.821 540.43 241.366C540.677 241.523 541.477 241.792 541.477 242.127C541.477 242.972 541.201 243.635 540.874 244.416C540.168 246.1 538.891 247.573 537.751 248.975C536.488 250.529 535.533 252.265 534.403 253.906C533.417 255.338 532.081 256.418 531.127 257.876C530.379 259.02 530.16 260.482 529.313 261.553C528.921 262.049 528.441 262.556 528.132 263.111C527.998 263.353 527.779 263.86 527.45 263.878C526.197 263.948 524.913 263.194 523.834 262.648C521.893 261.667 520.001 260.587 518.051 259.617C516.369 258.78 514.697 258.033 512.919 257.425C511.671 256.998 510.395 256.524 509.212 255.94C506.391 254.549 503.817 252.786 501.066 251.276C499.724 250.54 498.514 249.964 497.073 249.499C496.542 249.328 495.804 249.089 495.368 248.732C494.787 248.256 493.639 248.663 492.933 248.427" stroke="black" stroke-width="2.06013" stroke-linecap="round"/>
<path d="M578.823 249.19C579.482 249.19 580.151 248.682 580.761 248.458C581.722 248.106 582.504 247.415 583.448 247.066C584.302 246.749 583.927 245.563 584.046 244.852C584.232 243.734 584.011 242.596 584.135 241.477C584.203 240.865 584.124 240.159 584.769 240.638C585.406 241.111 585.933 241.752 586.554 242.2C586.792 242.372 589.527 244.495 589.625 244.405C590.694 243.434 591.962 242.393 593.482 242.281C594.334 242.218 594.213 242.063 593.544 242.834C592.926 243.547 592.647 244.503 592.232 245.334C592.014 245.769 591.751 246.176 591.554 246.619C591.439 246.878 591.054 247.381 591.054 247.664C591.054 247.912 591.84 248.442 592 248.673C592.284 249.082 592.545 249.378 592.803 249.797C593.173 250.397 593.607 251.218 593.607 251.922C593.607 253.132 589.866 252.02 589.358 251.851C588.173 251.456 587.766 251.848 587.099 252.886C586.624 253.625 586.015 254.368 585.608 255.136C585.32 255.681 584.95 254.996 584.849 254.734C584.646 254.206 584.769 253.48 584.769 252.922C584.769 252.62 584.926 250.22 584.671 250.163C584.119 250.041 583.405 250.155 582.841 250.155C582.315 250.155 581.815 249.994 581.314 249.994C580.862 249.994 579.882 249.881 579.466 249.672" stroke="black" stroke-width="2.06013" stroke-linecap="round"/>
<path d="M601.557 238.902C602.215 238.902 602.884 238.394 603.494 238.17C604.455 237.818 605.238 237.127 606.181 236.777C607.035 236.461 606.661 235.275 606.779 234.563C606.966 233.445 606.744 232.308 606.869 231.189C606.937 230.577 606.857 229.871 607.502 230.35C608.139 230.823 608.667 231.463 609.288 231.912C609.525 232.083 612.261 234.207 612.359 234.117C613.427 233.146 614.695 232.105 616.215 231.992C617.067 231.929 616.947 231.774 616.278 232.546C615.66 233.259 615.381 234.215 614.966 235.046C614.748 235.481 614.484 235.888 614.287 236.331C614.172 236.59 613.787 237.093 613.787 237.376C613.787 237.624 614.574 238.153 614.733 238.384C615.017 238.794 615.279 239.089 615.537 239.509C615.906 240.109 616.34 240.93 616.34 241.634C616.34 242.844 612.599 241.732 612.091 241.562C610.906 241.167 610.5 241.56 609.832 242.598C609.357 243.337 608.748 244.08 608.342 244.848C608.053 245.392 607.684 244.708 607.583 244.446C607.38 243.918 607.502 243.192 607.502 242.634C607.502 242.331 607.66 239.932 607.404 239.875C606.853 239.753 606.138 239.866 605.574 239.866C605.049 239.866 604.548 239.706 604.048 239.706C603.595 239.706 602.616 239.592 602.2 239.384" stroke="black" stroke-width="2.06013" stroke-linecap="round"/>
<path d="M587.501 263.331C589.032 263.192 590.739 261.955 592.053 261.296C599.333 257.642 606.559 254.22 614.237 251.458C616.786 250.541 619.359 249.708 621.977 249.021C622.178 248.968 623.568 248.407 623.745 248.583C623.834 248.673 623.551 248.756 623.495 248.869" stroke="black" stroke-width="2.06013" stroke-linecap="round"/>
<path d="M608.872 261.403C609.879 261.311 610.927 260.612 611.818 260.206C614.855 258.826 617.865 257.346 620.96 256.1C622.926 255.308 625.149 254.791 627.03 253.85" stroke="black" stroke-width="2.06013" stroke-linecap="round"/>
<path d="M602.605 274.901C603.901 274.901 605.261 273.989 606.373 273.472C608.404 272.528 610.412 271.533 612.443 270.589C612.753 270.445 613.046 270.322 613.372 270.241" stroke="black" stroke-width="2.06013" stroke-linecap="round"/>
<path d="M601.32 283.899C602.409 283.8 603.608 282.96 604.534 282.453C607.222 280.981 610.172 279.943 612.943 278.632C615.056 277.632 617.216 276.727 619.317 275.704C619.994 275.375 620.678 275.083 621.406 274.901" stroke="black" stroke-width="2.06013" stroke-linecap="round"/>
<rect x="565.326" y="237.836" width="58.5547" height="65.924" rx="6.52373" transform="rotate(-22.5498 565.326 237.836)" stroke="black" stroke-width="2.06013"/>
<path d="M531.717 292.503L562.937 307.653C567.38 309.81 567.909 315.93 563.901 318.816L520.894 349.792C518.621 351.428 515.557 351.432 513.281 349.8L487.374 331.23C483.764 328.642 483.739 323.282 487.325 320.661L525.019 293.105C526.968 291.68 529.545 291.448 531.717 292.503Z" stroke="black" stroke-width="2.06013"/>
<path d="M517.303 323.806C516.685 323.806 516.104 322.51 515.868 322.054C515.146 320.659 514.279 319.358 513.939 317.797C513.502 315.785 513.364 313.399 514.127 311.447C514.904 309.463 516.598 307.681 518.385 306.578C520.192 305.463 522.326 305.571 524.37 305.602C525.743 305.623 526.934 306.343 528.045 307.084C529.011 307.728 529.995 308.433 530.768 309.307C531.61 310.259 532.408 311.021 532.814 312.276C533.269 313.684 533.666 315.144 533.837 316.621C534.162 319.439 532.89 321.983 530.615 323.618C529.225 324.617 527.938 325.606 526.193 325.606" stroke="black" stroke-width="2.06013" stroke-linecap="round"/>
<path d="M521.324 330.157C522.784 330.157 524.224 330.142 525.687 330.157C527.853 330.178 530.193 330.582 532.332 330.133C533.836 329.818 535.342 329.129 536.589 328.252C536.885 328.043 537.281 327.837 537.623 327.722" stroke="black" stroke-width="2.06013" stroke-linecap="round"/>
<path d="M525.77 315.234C525.196 315.234 524.57 315.873 524.135 316.186C523.274 316.806 522.652 317.578 522.042 318.432C520.724 320.278 519.283 322.031 518.067 323.948C517.041 325.566 516.303 327.358 515.398 329.045C514.656 330.427 513.633 332.1 512.381 333.073C511.906 333.443 511.586 334.127 511.058 334.39" stroke="black" stroke-width="2.06013" stroke-linecap="round"/>
<path d="M209.34 355.86H171.891C169.501 355.86 167.106 355.301 165.182 353.884C160.916 350.744 156.608 345.576 158.63 337.318C162.834 320.151 177.286 323.355 181.978 324.271C183.351 320.837 191.527 311.653 199.146 315.687C210.82 321.867 209.218 335.487 207.043 341.439C207.615 340.866 212.537 340.226 215.283 343.155C218.574 346.666 216.538 350.877 214.639 353.461C213.421 355.117 211.397 355.86 209.34 355.86Z" fill="black"/>
<path d="M190.218 323.197C190.394 323.056 190.615 323.092 190.828 323.065C191.93 322.927 193.018 322.857 194.13 322.921C197.319 323.105 199.944 323.946 202.239 326.223C203.111 327.088 203.471 328.284 203.806 329.44" stroke="white" stroke-width="2.06013" stroke-linecap="round"/>
<path d="M166.472 342.967C166.382 342.761 166.474 342.556 166.503 342.343C166.655 341.243 166.869 340.175 167.219 339.117C168.222 336.084 169.713 333.766 172.507 332.139C173.568 331.52 174.816 331.482 176.02 331.458" stroke="white" stroke-width="2.06013" stroke-linecap="round"/>
<path d="M342.324 174.225C344.522 169.555 347.704 157.858 349.878 152.937L346.788 153.967C343.24 154.425 335.663 155.547 333.741 156.371C331.337 157.401 326.187 160.148 323.783 162.208C321.38 164.268 317.603 172.852 316.23 176.285C315.131 179.032 315.772 185.212 316.23 187.959L319.663 192.079C319.663 192.079 334.999 188.417 336.831 185.556C338.662 182.694 340.127 178.895 342.324 174.225Z" fill="black"/>
<path d="M358.119 180.405C360.751 180.978 363.887 181.092 366.359 179.719C368.831 178.345 370.251 176.857 370.823 176.285" stroke="black" stroke-width="2.06013"/>
<path d="M319.319 192.079C317.145 190.935 313.551 185.968 316.573 175.255C320.35 161.864 326.187 159.117 333.397 156.027C340.608 152.937 354.342 154.654 359.149 147.787C362.994 142.293 366.245 133.595 367.389 129.932C367.847 135.884 368.488 148.611 367.389 151.907C369.907 150.305 375.08 146.413 375.63 143.666C376.316 140.233 376.316 151.564 374.256 156.027L379.063 151.907C379.75 157.286 379.063 169.418 370.479 172.165" stroke="black" stroke-width="2.06013"/>
<path d="M364.928 191.743C368.93 190.722 374.647 189.702 372.36 197.526C370.067 205.374 365.69 202.516 364.642 200.588" stroke="black" stroke-width="2.06013"/>
<path d="M321.273 205.637C318.805 207.022 315.201 208.712 315.327 203.127C315.453 197.525 318.857 198.64 319.893 199.731" stroke="black" stroke-width="2.06013"/>
<path d="M353.312 209.247C352.625 210.506 350.634 213.093 348.161 213.367C345.689 213.642 344.613 213.482 344.384 213.367" stroke="black" stroke-width="2.06013"/>
<path d="M341.981 196.2C341.867 199.061 341.706 204.852 341.981 205.127C342.324 205.47 342.668 205.814 345.071 205.814" stroke="black" stroke-width="2.06013"/>
<path d="M247.558 220.921C246.986 222.752 245.636 227.033 244.812 229.505C243.782 232.595 229.017 301.953 229.361 310.193C229.704 318.434 233.481 338.348 249.619 328.735C262.529 321.043 288.418 301.037 299.748 291.996M299.748 291.996L297.002 272.768M299.748 291.996C302.266 305.959 308.264 336.838 312.109 348.649C315.955 360.46 318.29 363.871 318.976 364.1L305.929 361.764L292.881 358.95C292.881 358.95 319.157 365.421 336.487 365.473C354.646 365.528 382.153 358.426 382.153 358.426M409.965 358.263L382.153 358.426M382.153 358.426L391.59 291.996M394.858 268.991L391.59 291.996M391.59 291.996C405.955 301.037 437.777 319.052 450.138 318.777C465.589 318.434 469.366 306.073 466.275 291.996C463.803 280.734 451.053 239.92 444.987 220.921C441.668 209.362 434.549 185.968 432.627 184.869C430.223 183.496 427.133 182.122 427.82 184.869C428.369 187.067 431.253 195.627 432.627 199.633C431.139 194.712 427.751 184.869 426.103 184.869C424.043 184.869 422.669 185.556 423.356 189.333C423.905 192.354 425.187 197.917 425.76 200.32C424.272 194.941 420.747 184.251 418.549 184.526C415.802 184.869 415.459 189.333 416.489 192.423C417.313 194.895 420.037 204.898 421.296 209.591C418.549 207.988 412.712 205.058 411.339 206.157C409.622 207.53 409.278 211.994 412.369 213.711C414.841 215.084 419.35 217.717 421.296 218.861L425.073 227.445M425.073 227.445L443.614 221.608M425.073 227.445C427.82 236.372 433.588 256.699 434.687 266.587C435.785 276.476 436.976 285.129 437.434 288.219C427.472 276.888 404.358 252.853 391.59 247.36C378.822 241.866 362.353 236.601 355.715 234.655V222.295C358.576 221.15 364.368 217.007 364.642 209.591C364.917 202.174 365.444 186.586 365.672 179.719" stroke="black" stroke-width="2.06013"/>
<path d="M267.473 227.788C267.13 225.728 267.542 220.853 271.937 217.831C277.43 214.054 284.984 209.247 284.641 207.53C284.297 205.814 283.954 203.067 280.521 204.097C277.774 204.921 272.509 209.018 270.22 210.964C269.877 209.018 269.808 203.273 272.28 195.856C275.37 186.586 275.027 183.839 271.937 184.869C269.465 185.693 265.871 197.344 264.383 203.067C266.901 196.085 271.044 182.466 267.473 183.839C263.902 185.212 259.576 197.916 257.859 204.097C260.034 197.573 263.834 184.388 261.636 183.839C258.889 183.152 248.589 210.621 248.245 214.054C247.971 216.801 247.673 219.777 247.559 220.921L267.473 227.788ZM267.473 227.788C263.925 248.504 257.31 290.21 259.233 291.309C261.636 292.682 279.491 261.78 294.598 251.823C309.706 241.866 333.397 234.312 334.084 234.312C334.633 234.312 334.771 225.843 334.771 221.608C331.108 220.12 323.303 215.222 321.38 207.53C319.457 199.839 319.205 194.025 319.32 192.079C325.614 190.477 339.372 186.105 344.041 181.435" stroke="black" stroke-width="2.06013"/>
<path d="M253.396 296.459C253.396 296.459 256.142 294.743 259.648 291.309" stroke="black" stroke-width="2.06013" stroke-linecap="round"/>
<path d="M437.433 288.211C437.433 288.211 439.326 290.84 442.98 294.115" stroke="black" stroke-width="2.06013" stroke-linecap="round"/>
<path d="M252.709 304.289C253.08 303.992 253.58 303.882 253.967 303.559C254.564 303.062 255.271 302.457 255.752 301.851C256.16 301.338 256.439 300.699 256.902 300.236" stroke="black" stroke-width="2.06013" stroke-linecap="round"/>
<path d="M344.384 222.981C349.535 223.325 353.77 222.066 356.059 221.608L355.028 234.999C355.028 234.999 351.382 233.727 349.191 232.595C343.196 229.498 338.204 222.295 338.204 222.295C339.349 222.638 340.508 222.723 344.384 222.981Z" fill="black"/>
<path d="M334.427 232.595C333.969 236.944 335.776 245.121 339.578 248.046C344.042 251.48 351.253 250.106 354.343 244.269C355.933 241.267 355.601 237.86 355.715 234.312" stroke="black" stroke-width="2.06013"/>
<path d="M261.636 348.306C253.945 353.799 247.444 338.921 245.155 330.795L247.902 330.108L260.949 321.524L276.4 310.193L299.748 292.339L300.778 298.176L304.555 316.717C293.454 324.958 269.327 342.812 261.636 348.306Z" fill="black"/>
<path d="M388.334 317.061L392.111 292.339L400.351 297.489L408.248 302.296L430.91 313.284L444.644 318.434L451.854 319.121C451.282 322.898 449.588 331.138 447.391 333.885C444.644 337.318 440.524 340.409 426.103 336.288C414.566 332.992 396.117 322.096 388.334 317.061Z" fill="black"/>
</svg>
