<svg width="142" height="24" viewBox="0 0 142 24" fill="none" xmlns="http://www.w3.org/2000/svg">
<path d="M134.183 0.549805C134.183 0.549805 141.437 0.549805 141.437 6.90163C141.437 13.2535 134.183 13.2535 134.183 13.2535H130.571V22.3453H126.928V9.64164H130.384L126.928 4.19277V0.549805H134.183ZM134.65 9.6105C135.615 9.48596 137.825 9.01891 137.825 6.90163C137.825 4.19277 134.183 4.19277 134.183 4.19277H131.256L134.65 9.6105Z" fill="black"/>
<path d="M120.804 3.88146V19.0138H123.357V22.3454H114.607V19.0138H117.161V3.88146H114.732V0.549866H123.232V3.88146H120.804Z" fill="black"/>
<path d="M97.1898 0.549805C102.483 0.549805 109.925 1.76413 109.925 11.4476C109.925 20.7573 102.608 22.3453 97.1898 22.3453H93.5469V0.549805H97.1898ZM97.1898 18.7957C97.1898 18.7957 106.251 20.0412 106.251 11.4476C106.251 2.72935 97.1898 4.09936 97.1898 4.09936V18.7957Z" fill="black"/>
<path d="M81.5902 18.7023H89.6546V22.3453H77.9473V0.549805H81.5902V18.7023Z" fill="black"/>
<path d="M65.8783 13.2535H62.9203V22.3453H59.2773V0.549805H66.5321C66.5321 0.549805 73.8181 0.549805 73.8181 6.90163C73.8181 10.42 71.5762 11.9769 69.6146 12.693L74.0671 22.3453H70.0505L65.8783 13.2535ZM62.9203 9.64164H66.5321C66.5321 9.64164 70.1751 9.64164 70.1751 6.90163C70.1751 4.19277 66.5321 4.19277 66.5321 4.19277H62.9203V9.64164Z" fill="black"/>
<path d="M22.3248 22.7513L15.5059 4.81672L8.68706 22.7513L0 0.0839844H3.92319L8.68706 12.9433L13.4821 0.0839844H17.5298L22.3248 12.9433L27.1198 0.0839844H31.043L22.3248 22.7513Z" fill="black"/>
<g clip-path="url(#clip0_52_1317)">
<path d="M48.8482 11.9976V12.0556C48.8169 14.8857 46.5606 17.1811 43.7467 17.2727V23.9999C48.4076 23.935 52.425 21.2105 54.3531 17.275C55.1264 15.6988 55.5635 13.9276 55.5716 12.0556C55.5728 12.0359 55.5728 12.0173 55.5728 11.9976C55.5728 10.1036 55.1345 8.31271 54.3531 6.72021H44.0945C44.5316 6.76893 46.0841 6.99626 47.3606 8.32315C48.7879 9.80779 48.8458 11.6033 48.8482 11.9976Z" fill="black"/>
<path d="M31.5723 11.9977C31.5723 12.0174 31.5723 12.036 31.5735 12.0557C31.5816 13.9277 32.0187 15.6988 32.7921 17.2751H43.0506C42.6344 17.2298 41.0263 17.0037 39.7289 15.613C38.377 14.1632 38.3039 12.4581 38.297 12.0557V11.9977C38.297 9.21979 40.4431 6.94297 43.1665 6.73536V0C38.6042 0.151943 34.6877 2.8498 32.7921 6.72028C32.0106 8.31278 31.5723 10.1036 31.5723 11.9977Z" fill="black"/>
</g>
<defs>
<clipPath id="clip0_52_1317">
<rect width="24" height="24" fill="white" transform="matrix(-1 0 0 1 55.5723 0)"/>
</clipPath>
</defs>
</svg>
